# xmcd
#
# Track frame offsets:
#	150
#	14127
#	26637
#	39572
#	58132
#	76130
#	87475
#	100147
#	122102
#	141322
#	157867
#	173085
#	190750
#	200082
#	219260
#
# Disc length: 3213 seconds
#
# Revision: 1
# Processed by: cddbd v1.5.1PL0 Copyright (c) Steve Scherf et al.
# Submitted via: audiograbber 1.82.02
#
DISCID=ce0c8b0f
DTITLE=Various Artist - 3 Hats
DYEAR=2004
DGENRE=Country
TTITLE0=Sidewinders (with Handsome Ned) - Put The Blame On Me
TTITLE1=Dennis Jay - Tupelo Flash
TTITLE2=John Borra - Who's Pickin' On You
TTITLE3=Handsome Neds - In Spite Of The Danger
TTITLE4=Dennis Jay - Letters From Mexico
TTITLE5=John Borra - Beatle Bug
TTITLE6=Handsome Neds - Ain't No Romm For Cheatin'
TTITLE7=Dennis Jay - Sorry Excuse For Love
TTITLE8=John Borra - Big Brown River
TTITLE9=New Neds - Wake Me Up I'm Dreamin'
TTITLE10=John Borra - Babe You Make Me Smile
TTITLE11=Dennis Jay - Lonesome By Any Other Name
TTITLE12=Handsome Ned - Steel Rail Blue
TTITLE13=John Borra - I'll Say So Long
TTITLE14=Dennis Jay - Cancion Para La Noche De Casamiento
EXTD=Linkhorn Records
EXTT0=
EXTT1=
EXTT2=
EXTT3=
EXTT4=
EXTT5=
EXTT6=
EXTT7=
EXTT8=
EXTT9=
EXTT10=
EXTT11=
EXTT12=
EXTT13=
EXTT14=
PLAYORDER=
